M48
;Layer_Color=9474304
;FILE_FORMAT=4:4
METRIC,LZ
;TYPE=PLATED
T1F00S00C0.2500
T2F00S00C2.2000
T3F00S00C2.8000
%
T01
X-0014859Y-0020066
X-00139216Y-00139951
X-00068883Y-00183158
X-0009271Y-0023241
X0Y-0024003
Y-00196346
X00074327Y-0018034
Y-0023241
X0013081Y-0021209
X00135331Y-00139216
X00202499Y-00146391
X00179615Y-00084576
X00238407Y-00095103
Y-0004445
Y00005893
Y0004445
X00228175Y0005593
X00238407Y000762
X-001905Y000381
X-0019304Y-00017652
X-002413Y-00002946
Y00068883
Y-0008128
X-00183299Y-00074327
X-00197416Y-00152938
X-002413Y00095103
X-00164043Y00112303
X-0013716Y0014605
X-00155885Y0019431
X-00079612Y00184078
X-00092683Y0023241
X-00017652Y0024765
X000254
X00063439Y00240037
X00096913Y0022861
X00095103Y00174036
X000381Y0019431
X00155885
X00146841Y00139216
X00202499Y00146391
X00205497Y00107492
X00202431Y00082103
X0023749Y0012065
T02
X001725Y-001725
X-001725
Y001725
X001725
T03
X00235Y-0015
X-00235
Y0015
X00235
M30
