G04*
G04 #@! TF.GenerationSoftware,Altium Limited,Altium Designer,20.0.2 (26)*
G04*
G04 Layer_Color=8388736*
%FSLAX44Y44*%
%MOMM*%
G71*
G01*
G75*
%ADD11C,0.2540*%
G04:AMPARAMS|DCode=28|XSize=1.2032mm|YSize=2.2032mm|CornerRadius=0mm|HoleSize=0mm|Usage=FLASHONLY|Rotation=213.750|XOffset=0mm|YOffset=0mm|HoleType=Round|Shape=Rectangle|*
%AMROTATEDRECTD28*
4,1,4,-0.1118,1.2502,1.1122,-0.5817,0.1118,-1.2502,-1.1122,0.5817,-0.1118,1.2502,0.0*
%
%ADD28ROTATEDRECTD28*%

G04:AMPARAMS|DCode=29|XSize=1.8032mm|YSize=2.2032mm|CornerRadius=0mm|HoleSize=0mm|Usage=FLASHONLY|Rotation=213.750|XOffset=0mm|YOffset=0mm|HoleType=Round|Shape=Rectangle|*
%AMROTATEDRECTD29*
4,1,4,0.1376,1.4169,1.3617,-0.4150,-0.1376,-1.4169,-1.3617,0.4150,0.1376,1.4169,0.0*
%
%ADD29ROTATEDRECTD29*%

G04:AMPARAMS|DCode=30|XSize=1.8032mm|YSize=2.2032mm|CornerRadius=0mm|HoleSize=0mm|Usage=FLASHONLY|Rotation=101.250|XOffset=0mm|YOffset=0mm|HoleType=Round|Shape=Rectangle|*
%AMROTATEDRECTD30*
4,1,4,1.2563,-0.6694,-0.9045,-1.0992,-1.2563,0.6694,0.9045,1.0992,1.2563,-0.6694,0.0*
%
%ADD30ROTATEDRECTD30*%

G04:AMPARAMS|DCode=31|XSize=1.2032mm|YSize=2.2032mm|CornerRadius=0mm|HoleSize=0mm|Usage=FLASHONLY|Rotation=101.250|XOffset=0mm|YOffset=0mm|HoleType=Round|Shape=Rectangle|*
%AMROTATEDRECTD31*
4,1,4,1.1978,-0.3751,-0.9631,-0.8050,-1.1978,0.3751,0.9631,0.8050,1.1978,-0.3751,0.0*
%
%ADD31ROTATEDRECTD31*%

G04:AMPARAMS|DCode=32|XSize=1.2032mm|YSize=2.2032mm|CornerRadius=0mm|HoleSize=0mm|Usage=FLASHONLY|Rotation=78.750|XOffset=0mm|YOffset=0mm|HoleType=Round|Shape=Rectangle|*
%AMROTATEDRECTD32*
4,1,4,0.9631,-0.8050,-1.1978,-0.3751,-0.9631,0.8050,1.1978,0.3751,0.9631,-0.8050,0.0*
%
%ADD32ROTATEDRECTD32*%

G04:AMPARAMS|DCode=33|XSize=1.8032mm|YSize=2.2032mm|CornerRadius=0mm|HoleSize=0mm|Usage=FLASHONLY|Rotation=78.750|XOffset=0mm|YOffset=0mm|HoleType=Round|Shape=Rectangle|*
%AMROTATEDRECTD33*
4,1,4,0.9045,-1.0992,-1.2563,-0.6694,-0.9045,1.0992,1.2563,0.6694,0.9045,-1.0992,0.0*
%
%ADD33ROTATEDRECTD33*%

G04:AMPARAMS|DCode=34|XSize=1.8032mm|YSize=2.2032mm|CornerRadius=0mm|HoleSize=0mm|Usage=FLASHONLY|Rotation=56.250|XOffset=0mm|YOffset=0mm|HoleType=Round|Shape=Rectangle|*
%AMROTATEDRECTD34*
4,1,4,0.4150,-1.3617,-1.4169,-0.1376,-0.4150,1.3617,1.4169,0.1376,0.4150,-1.3617,0.0*
%
%ADD34ROTATEDRECTD34*%

G04:AMPARAMS|DCode=35|XSize=1.2032mm|YSize=2.2032mm|CornerRadius=0mm|HoleSize=0mm|Usage=FLASHONLY|Rotation=56.250|XOffset=0mm|YOffset=0mm|HoleType=Round|Shape=Rectangle|*
%AMROTATEDRECTD35*
4,1,4,0.5817,-1.1122,-1.2502,0.1118,-0.5817,1.1122,1.2502,-0.1118,0.5817,-1.1122,0.0*
%
%ADD35ROTATEDRECTD35*%

G04:AMPARAMS|DCode=36|XSize=1.8032mm|YSize=2.2032mm|CornerRadius=0mm|HoleSize=0mm|Usage=FLASHONLY|Rotation=11.250|XOffset=0mm|YOffset=0mm|HoleType=Round|Shape=Rectangle|*
%AMROTATEDRECTD36*
4,1,4,-0.6694,-1.2563,-1.0992,0.9045,0.6694,1.2563,1.0992,-0.9045,-0.6694,-1.2563,0.0*
%
%ADD36ROTATEDRECTD36*%

G04:AMPARAMS|DCode=37|XSize=1.2032mm|YSize=2.2032mm|CornerRadius=0mm|HoleSize=0mm|Usage=FLASHONLY|Rotation=11.250|XOffset=0mm|YOffset=0mm|HoleType=Round|Shape=Rectangle|*
%AMROTATEDRECTD37*
4,1,4,-0.3751,-1.1978,-0.8050,0.9631,0.3751,1.1978,0.8050,-0.9631,-0.3751,-1.1978,0.0*
%
%ADD37ROTATEDRECTD37*%

G04:AMPARAMS|DCode=38|XSize=1.2032mm|YSize=2.2032mm|CornerRadius=0mm|HoleSize=0mm|Usage=FLASHONLY|Rotation=348.750|XOffset=0mm|YOffset=0mm|HoleType=Round|Shape=Rectangle|*
%AMROTATEDRECTD38*
4,1,4,-0.8050,-0.9631,-0.3751,1.1978,0.8050,0.9631,0.3751,-1.1978,-0.8050,-0.9631,0.0*
%
%ADD38ROTATEDRECTD38*%

G04:AMPARAMS|DCode=39|XSize=1.8032mm|YSize=2.2032mm|CornerRadius=0mm|HoleSize=0mm|Usage=FLASHONLY|Rotation=348.750|XOffset=0mm|YOffset=0mm|HoleType=Round|Shape=Rectangle|*
%AMROTATEDRECTD39*
4,1,4,-1.0992,-0.9045,-0.6694,1.2563,1.0992,0.9045,0.6694,-1.2563,-1.0992,-0.9045,0.0*
%
%ADD39ROTATEDRECTD39*%

G04:AMPARAMS|DCode=40|XSize=1.8032mm|YSize=2.2032mm|CornerRadius=0mm|HoleSize=0mm|Usage=FLASHONLY|Rotation=326.250|XOffset=0mm|YOffset=0mm|HoleType=Round|Shape=Rectangle|*
%AMROTATEDRECTD40*
4,1,4,-1.3617,-0.4150,-0.1376,1.4169,1.3617,0.4150,0.1376,-1.4169,-1.3617,-0.4150,0.0*
%
%ADD40ROTATEDRECTD40*%

G04:AMPARAMS|DCode=41|XSize=1.2032mm|YSize=2.2032mm|CornerRadius=0mm|HoleSize=0mm|Usage=FLASHONLY|Rotation=326.250|XOffset=0mm|YOffset=0mm|HoleType=Round|Shape=Rectangle|*
%AMROTATEDRECTD41*
4,1,4,-1.1122,-0.5817,0.1118,1.2502,1.1122,0.5817,-0.1118,-1.2502,-1.1122,-0.5817,0.0*
%
%ADD41ROTATEDRECTD41*%

G04:AMPARAMS|DCode=42|XSize=1.2032mm|YSize=2.2032mm|CornerRadius=0mm|HoleSize=0mm|Usage=FLASHONLY|Rotation=303.750|XOffset=0mm|YOffset=0mm|HoleType=Round|Shape=Rectangle|*
%AMROTATEDRECTD42*
4,1,4,-1.2502,-0.1118,0.5817,1.1122,1.2502,0.1118,-0.5817,-1.1122,-1.2502,-0.1118,0.0*
%
%ADD42ROTATEDRECTD42*%

G04:AMPARAMS|DCode=43|XSize=1.8032mm|YSize=2.2032mm|CornerRadius=0mm|HoleSize=0mm|Usage=FLASHONLY|Rotation=303.750|XOffset=0mm|YOffset=0mm|HoleType=Round|Shape=Rectangle|*
%AMROTATEDRECTD43*
4,1,4,-1.4169,0.1376,0.4150,1.3617,1.4169,-0.1376,-0.4150,-1.3617,-1.4169,0.1376,0.0*
%
%ADD43ROTATEDRECTD43*%

%ADD44C,1.4572*%
D11*
X180000Y0D02*
G03*
X180000Y0I-180000J0D01*
G01*
D28*
X-109809Y191217D02*
D03*
X107346Y-193039D02*
D03*
D29*
X-133922Y175105D02*
D03*
X131459Y-176928D02*
D03*
D30*
X213364Y55930D02*
D03*
X-213364Y-55930D02*
D03*
D31*
X219021Y27487D02*
D03*
X-219021Y-27487D02*
D03*
D32*
X213044Y-56588D02*
D03*
X-212779Y58873D02*
D03*
D33*
X218702Y-28145D02*
D03*
X-218436Y30430D02*
D03*
D34*
X189550Y-112303D02*
D03*
X-189550Y112303D02*
D03*
D35*
X173438Y-136416D02*
D03*
X-173438Y136416D02*
D03*
D36*
X55930Y-213364D02*
D03*
X-55930Y213364D02*
D03*
D37*
X27487Y-219021D02*
D03*
X-27487Y219021D02*
D03*
D38*
X-56588Y-213044D02*
D03*
X58873Y212779D02*
D03*
D39*
X-28145Y-218702D02*
D03*
X30430Y218436D02*
D03*
D40*
X-109841Y-191372D02*
D03*
X109841Y191372D02*
D03*
D41*
X-133954Y-175261D02*
D03*
X133954Y175261D02*
D03*
D42*
X-191217Y-109809D02*
D03*
X191217Y109809D02*
D03*
D43*
X-175105Y-133922D02*
D03*
X175105Y133922D02*
D03*
D44*
X-235000Y150000D02*
D03*
Y-150000D02*
D03*
X235000D02*
D03*
X-172500Y-172500D02*
D03*
X172500D02*
D03*
Y172500D02*
D03*
X-172500D02*
D03*
X235000Y150000D02*
D03*
M02*
