G04*
G04 #@! TF.GenerationSoftware,Altium Limited,Altium Designer,20.0.2 (26)*
G04*
G04 Layer_Physical_Order=2*
G04 Layer_Color=16711680*
%FSLAX44Y44*%
%MOMM*%
G71*
G01*
G75*
%ADD11C,0.2540*%
%ADD45C,0.4000*%
%ADD46C,1.2540*%
%ADD47C,0.5000*%
%ADD48R,1.2500X1.2000*%
%ADD49R,1.2500X2.4000*%
%ADD50R,1.3970X1.3970*%
%ADD51R,3.0000X2.1000*%
%ADD52R,2.1000X0.8000*%
%ADD53R,0.5080X1.2700*%
%ADD54R,0.8890X1.0160*%
%ADD55R,1.0160X0.8890*%
%ADD56R,1.6000X1.2000*%
G36*
X15500Y256252D02*
X30944Y254848D01*
X46275Y252515D01*
X61437Y249260D01*
X76375Y245096D01*
X91034Y240037D01*
X105361Y234103D01*
X119304Y227314D01*
X132811Y219696D01*
X145834Y211276D01*
X158324Y202086D01*
X170237Y192158D01*
X176230Y186516D01*
X175897Y185265D01*
X175799Y185178D01*
X172500Y185612D01*
X169106Y185165D01*
X165944Y183855D01*
X163228Y181772D01*
X161145Y179056D01*
X159835Y175894D01*
X159388Y172500D01*
X159835Y169106D01*
X161145Y165944D01*
X163228Y163228D01*
X165944Y161145D01*
X169106Y159835D01*
X172500Y159388D01*
X175894Y159835D01*
X179056Y161145D01*
X181772Y163228D01*
X183855Y165944D01*
X185165Y169106D01*
X185612Y172500D01*
X185178Y175799D01*
X185265Y175897D01*
X186516Y176230D01*
X192158Y170237D01*
X194431Y167509D01*
X194431Y167509D01*
X194622Y167346D01*
X195703Y166623D01*
X196979Y166369D01*
X198255Y166623D01*
X198319Y166666D01*
X230447D01*
X230635Y165396D01*
X228847Y164854D01*
X226068Y163368D01*
X223632Y161369D01*
X221632Y158932D01*
X220146Y156153D01*
X219231Y153137D01*
X218923Y150000D01*
X219231Y146863D01*
X220146Y143847D01*
X221632Y141068D01*
X223632Y138631D01*
X226068Y136632D01*
X228847Y135146D01*
X231863Y134232D01*
X235000Y133923D01*
X238137Y134232D01*
X241153Y135146D01*
X243932Y136632D01*
X246369Y138631D01*
X248368Y141068D01*
X249396Y142991D01*
X250666Y142673D01*
Y-142673D01*
X249396Y-142991D01*
X248368Y-141068D01*
X246369Y-138631D01*
X243932Y-136632D01*
X241153Y-135146D01*
X238137Y-134232D01*
X235000Y-133923D01*
X231863Y-134232D01*
X228847Y-135146D01*
X226068Y-136632D01*
X223632Y-138631D01*
X221632Y-141068D01*
X220146Y-143847D01*
X219231Y-146863D01*
X218923Y-150000D01*
X219231Y-153137D01*
X220146Y-156153D01*
X221632Y-158932D01*
X223632Y-161369D01*
X226068Y-163368D01*
X228847Y-164854D01*
X230635Y-165396D01*
X230447Y-166666D01*
X198427D01*
X198294Y-166577D01*
X197019Y-166324D01*
X195743Y-166577D01*
X194661Y-167300D01*
X194470Y-167463D01*
X194470Y-167463D01*
X192158Y-170237D01*
X186516Y-176230D01*
X185265Y-175897D01*
X185178Y-175799D01*
X185612Y-172500D01*
X185165Y-169106D01*
X183855Y-165944D01*
X181772Y-163228D01*
X179056Y-161145D01*
X175894Y-159835D01*
X172500Y-159388D01*
X169106Y-159835D01*
X165944Y-161145D01*
X163228Y-163228D01*
X161145Y-165944D01*
X159835Y-169106D01*
X159388Y-172500D01*
X159835Y-175894D01*
X161145Y-179056D01*
X163228Y-181772D01*
X165944Y-183855D01*
X169106Y-185165D01*
X172500Y-185612D01*
X175799Y-185178D01*
X175897Y-185265D01*
X176230Y-186516D01*
X170237Y-192158D01*
X158324Y-202086D01*
X145834Y-211276D01*
X132811Y-219696D01*
X119304Y-227314D01*
X105361Y-234103D01*
X91034Y-240037D01*
X76375Y-245096D01*
X61437Y-249260D01*
X46275Y-252515D01*
X30944Y-254848D01*
X15500Y-256252D01*
X0Y-256720D01*
X-15500Y-256252D01*
X-30944Y-254848D01*
X-46275Y-252515D01*
X-61437Y-249260D01*
X-76375Y-245096D01*
X-91034Y-240037D01*
X-105361Y-234103D01*
X-119304Y-227314D01*
X-132811Y-219696D01*
X-145834Y-211276D01*
X-158324Y-202086D01*
X-170237Y-192158D01*
X-176230Y-186516D01*
X-175897Y-185265D01*
X-175799Y-185178D01*
X-172500Y-185612D01*
X-169106Y-185165D01*
X-165944Y-183855D01*
X-163228Y-181772D01*
X-161145Y-179056D01*
X-159835Y-175894D01*
X-159388Y-172500D01*
X-159835Y-169106D01*
X-161145Y-165944D01*
X-163228Y-163228D01*
X-165944Y-161145D01*
X-169106Y-159835D01*
X-172500Y-159388D01*
X-175894Y-159835D01*
X-179056Y-161145D01*
X-181772Y-163228D01*
X-183855Y-165944D01*
X-185165Y-169106D01*
X-185612Y-172500D01*
X-185178Y-175799D01*
X-185265Y-175897D01*
X-186516Y-176230D01*
X-192158Y-170237D01*
X-194470Y-167463D01*
X-194470Y-167463D01*
X-194661Y-167300D01*
X-195743Y-166577D01*
X-197019Y-166324D01*
X-198294Y-166577D01*
X-198427Y-166666D01*
X-230447D01*
X-230635Y-165396D01*
X-228847Y-164854D01*
X-226068Y-163368D01*
X-223632Y-161369D01*
X-221632Y-158932D01*
X-220146Y-156153D01*
X-219231Y-153137D01*
X-218923Y-150000D01*
X-219231Y-146863D01*
X-220146Y-143847D01*
X-221632Y-141068D01*
X-223632Y-138631D01*
X-226068Y-136632D01*
X-228847Y-135146D01*
X-231863Y-134232D01*
X-235000Y-133923D01*
X-238137Y-134232D01*
X-241153Y-135146D01*
X-243932Y-136632D01*
X-246369Y-138631D01*
X-248368Y-141068D01*
X-249396Y-142991D01*
X-250666Y-142673D01*
Y142673D01*
X-249396Y142991D01*
X-248368Y141068D01*
X-246369Y138631D01*
X-243932Y136632D01*
X-241153Y135146D01*
X-238137Y134232D01*
X-235000Y133923D01*
X-231863Y134232D01*
X-228847Y135146D01*
X-226068Y136632D01*
X-223632Y138631D01*
X-221632Y141068D01*
X-220146Y143847D01*
X-219231Y146863D01*
X-218923Y150000D01*
X-219231Y153137D01*
X-220146Y156153D01*
X-221632Y158932D01*
X-223632Y161369D01*
X-226068Y163368D01*
X-228847Y164854D01*
X-230635Y165396D01*
X-230447Y166666D01*
X-197496D01*
X-196220Y166920D01*
X-196186Y166942D01*
X-195270Y167125D01*
X-194188Y167847D01*
X-194013Y168011D01*
X-194013Y168011D01*
X-192158Y170237D01*
X-186516Y176230D01*
X-185265Y175897D01*
X-185178Y175799D01*
X-185612Y172500D01*
X-185165Y169106D01*
X-183855Y165944D01*
X-181772Y163228D01*
X-179056Y161145D01*
X-175894Y159835D01*
X-172500Y159388D01*
X-169106Y159835D01*
X-165944Y161145D01*
X-163228Y163228D01*
X-161145Y165944D01*
X-159835Y169106D01*
X-159388Y172500D01*
X-159835Y175894D01*
X-161145Y179056D01*
X-163228Y181772D01*
X-165944Y183855D01*
X-169106Y185165D01*
X-172500Y185612D01*
X-175799Y185178D01*
X-175897Y185265D01*
X-176230Y186516D01*
X-170237Y192158D01*
X-158324Y202086D01*
X-145834Y211276D01*
X-132811Y219696D01*
X-119304Y227314D01*
X-105361Y234103D01*
X-91034Y240037D01*
X-76375Y245096D01*
X-61437Y249260D01*
X-46275Y252515D01*
X-30944Y254848D01*
X-15500Y256252D01*
X0Y256720D01*
X15500Y256252D01*
D02*
G37*
%LPC*%
G36*
X1390Y198850D02*
X-11500D01*
Y192983D01*
X-13796Y192901D01*
X-27523Y191425D01*
X-41109Y188974D01*
X-54485Y185559D01*
X-67584Y181200D01*
X-80338Y175917D01*
X-92683Y169737D01*
X-104556Y162693D01*
X-115896Y154819D01*
X-126646Y146157D01*
X-136750Y136750D01*
X-146157Y126646D01*
X-154819Y115896D01*
X-162693Y104556D01*
X-169737Y92683D01*
X-175917Y80338D01*
X-181200Y67584D01*
X-182002Y65174D01*
X-182682Y64494D01*
X-186630D01*
Y67160D01*
X-211630D01*
Y55160D01*
X-186630D01*
Y57826D01*
X-181301D01*
X-180025Y58080D01*
X-178943Y58802D01*
X-176714Y61032D01*
X-175991Y62113D01*
X-175933Y62298D01*
X-175933Y62298D01*
X-174949Y65253D01*
X-169848Y77567D01*
X-163882Y89486D01*
X-157080Y100949D01*
X-149479Y111898D01*
X-141115Y122277D01*
X-132032Y132032D01*
X-122277Y141115D01*
X-111898Y149479D01*
X-100949Y157080D01*
X-89486Y163882D01*
X-77567Y169848D01*
X-65253Y174949D01*
X-52606Y179158D01*
X-39691Y182455D01*
X-26573Y184821D01*
X-13321Y186246D01*
X-12414Y186279D01*
X-11500Y185397D01*
Y184690D01*
X1390D01*
Y198850D01*
D02*
G37*
G36*
X12946Y224410D02*
X-7054D01*
Y218886D01*
X-14331Y218648D01*
X-28601Y217243D01*
X-42748Y214907D01*
X-56712Y211651D01*
X-70433Y207489D01*
X-83853Y202438D01*
X-96913Y196520D01*
X-109559Y189761D01*
X-121735Y182189D01*
X-133390Y173837D01*
X-144474Y164741D01*
X-154939Y154939D01*
X-164741Y144474D01*
X-173837Y133390D01*
X-182189Y121735D01*
X-189761Y109559D01*
X-196520Y96913D01*
X-198674Y92160D01*
X-211630D01*
Y80160D01*
X-186630D01*
Y92160D01*
X-188580D01*
X-188967Y92760D01*
X-189167Y93430D01*
X-182719Y105493D01*
X-175428Y117218D01*
X-167386Y128440D01*
X-158628Y139113D01*
X-149190Y149190D01*
X-139113Y158628D01*
X-128440Y167386D01*
X-117218Y175428D01*
X-105493Y182719D01*
X-93317Y189228D01*
X-80741Y194926D01*
X-67819Y199789D01*
X-54607Y203797D01*
X-41161Y206932D01*
X-27539Y209181D01*
X-13799Y210534D01*
X-7966Y210725D01*
X-7054Y209842D01*
Y208410D01*
X12946D01*
Y209660D01*
X14216Y210493D01*
X27539Y209181D01*
X41161Y206932D01*
X54607Y203797D01*
X67819Y199789D01*
X80741Y194926D01*
X93317Y189228D01*
X105493Y182719D01*
X117218Y175428D01*
X128440Y167386D01*
X139113Y158628D01*
X142763Y155209D01*
Y141213D01*
X142603Y140972D01*
X142253Y139216D01*
X142603Y137461D01*
X143597Y135972D01*
X145086Y134978D01*
X146841Y134628D01*
X148597Y134978D01*
X150086Y135972D01*
X151080Y137461D01*
X151430Y139216D01*
X151080Y140972D01*
X150920Y141213D01*
Y157043D01*
X150609Y158604D01*
X149725Y159927D01*
X149337Y160187D01*
X144474Y164741D01*
X133390Y173837D01*
X121735Y182189D01*
X109559Y189761D01*
X96913Y196520D01*
X83853Y202438D01*
X70433Y207489D01*
X56712Y211651D01*
X42748Y214907D01*
X28601Y217243D01*
X14331Y218648D01*
X12946Y218694D01*
Y224410D01*
D02*
G37*
G36*
X192500Y137660D02*
X178340D01*
Y124770D01*
X182086D01*
Y116453D01*
X180880D01*
Y99753D01*
X189110D01*
X189960Y99753D01*
X191230Y99753D01*
X199460D01*
Y102652D01*
X200442Y103457D01*
X200663Y103413D01*
X203501D01*
X203741Y103253D01*
X205497Y102904D01*
X207253Y103253D01*
X207493Y103413D01*
X213638D01*
Y100766D01*
X216256D01*
Y95671D01*
X213638D01*
Y81511D01*
X226528D01*
Y95671D01*
X224412D01*
Y100766D01*
X226528D01*
Y114926D01*
X213638D01*
Y111570D01*
X207493D01*
X207253Y111731D01*
X205497Y112080D01*
X203741Y111731D01*
X203501Y111570D01*
X202063D01*
X201612Y111871D01*
X200051Y112182D01*
X199460Y113197D01*
Y116453D01*
X191230D01*
X190380Y116453D01*
X189652D01*
X188754Y117351D01*
Y124770D01*
X192500D01*
Y137660D01*
D02*
G37*
G36*
X17392Y198850D02*
X4502D01*
Y184690D01*
X17392D01*
Y184858D01*
X18337Y185707D01*
X26573Y184821D01*
X39691Y182455D01*
X52606Y179158D01*
X65253Y174949D01*
X77567Y169848D01*
X89486Y163882D01*
X100949Y157080D01*
X111898Y149479D01*
X122277Y141115D01*
X132032Y132032D01*
X141115Y122277D01*
X149479Y111898D01*
X157080Y100949D01*
X162255Y92229D01*
X162330Y92271D01*
X162822Y91534D01*
X163904Y90811D01*
X165180Y90558D01*
X165624Y90646D01*
X170190D01*
X171380Y90453D01*
X171380Y89376D01*
Y73753D01*
X172586D01*
Y72319D01*
X172640Y72047D01*
X172632Y71769D01*
X172766Y71415D01*
X172840Y71043D01*
X172994Y70812D01*
X173092Y70553D01*
X190862Y42111D01*
X190862Y42111D01*
X196336Y33350D01*
X196595Y33074D01*
X196806Y32759D01*
X197037Y32604D01*
X197227Y32402D01*
X197572Y32246D01*
X197887Y32036D01*
X198160Y31982D01*
X198413Y31868D01*
X198792Y31856D01*
X199163Y31782D01*
X202018D01*
Y26131D01*
X207669D01*
Y21844D01*
X202753D01*
Y5844D01*
X219253D01*
Y21844D01*
X214337D01*
Y26131D01*
X219988D01*
Y44101D01*
X202018D01*
Y39237D01*
X200748Y38872D01*
X196517Y45644D01*
X179749Y72483D01*
X180453Y73753D01*
X181730Y73753D01*
X189110D01*
X189960Y73753D01*
X191230Y73753D01*
X198570D01*
X198663Y73285D01*
X199547Y71962D01*
X204645Y66865D01*
X204159Y65691D01*
X202018D01*
Y47721D01*
X219988D01*
Y65691D01*
X215081D01*
Y66274D01*
X214771Y67835D01*
X213887Y69158D01*
X213887Y69158D01*
X206509Y76536D01*
Y80107D01*
X206670Y80347D01*
X207019Y82103D01*
X206670Y83859D01*
X205675Y85347D01*
X204186Y86342D01*
X202431Y86691D01*
X200730Y86353D01*
X200662Y86347D01*
X199460Y86835D01*
Y90453D01*
X191230D01*
X190380Y90453D01*
X189523Y90453D01*
X188754Y91222D01*
X188500Y92498D01*
X187778Y93580D01*
X185020Y96337D01*
X183938Y97060D01*
X182662Y97314D01*
X166990D01*
X162693Y104556D01*
X154819Y115896D01*
X146157Y126646D01*
X136750Y136750D01*
X126646Y146157D01*
X115896Y154819D01*
X104556Y162693D01*
X92683Y169737D01*
X80338Y175917D01*
X67584Y181200D01*
X54485Y185559D01*
X41109Y188974D01*
X27523Y191425D01*
X17392Y192514D01*
Y198850D01*
D02*
G37*
G36*
X228175Y60518D02*
X226419Y60169D01*
X224930Y59174D01*
X223936Y57686D01*
X223587Y55930D01*
X223936Y54174D01*
X224841Y52820D01*
Y-9950D01*
X223031Y-11760D01*
X219253D01*
Y-2906D01*
X202753D01*
Y-30906D01*
X207669D01*
Y-44576D01*
X201003D01*
Y-60576D01*
X221003D01*
Y-44576D01*
X214337D01*
Y-30906D01*
X219253D01*
Y-18428D01*
X224412D01*
X225688Y-18174D01*
X226770Y-17451D01*
X230532Y-13689D01*
X231255Y-12607D01*
X231509Y-11331D01*
Y52820D01*
X232414Y54174D01*
X232763Y55930D01*
X232414Y57686D01*
X231419Y59174D01*
X229931Y60169D01*
X228175Y60518D01*
D02*
G37*
G36*
X0Y182751D02*
X-13037Y182286D01*
X-26008Y180891D01*
X-38847Y178575D01*
X-51487Y175349D01*
X-63865Y171229D01*
X-75918Y166236D01*
X-87583Y160397D01*
X-98803Y153740D01*
X-109519Y146300D01*
X-119677Y138114D01*
X-129225Y129225D01*
X-138114Y119677D01*
X-146300Y109519D01*
X-153740Y98803D01*
X-160397Y87583D01*
X-166236Y75918D01*
X-171229Y63865D01*
X-175349Y51487D01*
X-178575Y38847D01*
X-180891Y26008D01*
X-182286Y13037D01*
X-182751Y0D01*
X-182286Y-13037D01*
X-180891Y-26008D01*
X-178575Y-38847D01*
X-175349Y-51487D01*
X-171229Y-63865D01*
X-166236Y-75918D01*
X-160397Y-87583D01*
X-153740Y-98803D01*
X-146300Y-109519D01*
X-138114Y-119677D01*
X-129225Y-129225D01*
X-119677Y-138114D01*
X-109519Y-146300D01*
X-98803Y-153740D01*
X-87583Y-160397D01*
X-75918Y-166236D01*
X-63865Y-171229D01*
X-51487Y-175349D01*
X-38847Y-178575D01*
X-26008Y-180891D01*
X-13037Y-182286D01*
X0Y-182751D01*
X13037Y-182286D01*
X26008Y-180891D01*
X38847Y-178575D01*
X51487Y-175349D01*
X63865Y-171229D01*
X75918Y-166236D01*
X87583Y-160397D01*
X98803Y-153740D01*
X109519Y-146300D01*
X119677Y-138114D01*
X129225Y-129225D01*
X138114Y-119677D01*
X146300Y-109519D01*
X153740Y-98803D01*
X160397Y-87583D01*
X166236Y-75918D01*
X171229Y-63865D01*
X175349Y-51487D01*
X178575Y-38847D01*
X180891Y-26008D01*
X182286Y-13037D01*
X182751Y0D01*
X182286Y13037D01*
X180891Y26008D01*
X178575Y38847D01*
X175349Y51487D01*
X171229Y63865D01*
X166236Y75918D01*
X160397Y87583D01*
X153740Y98803D01*
X146300Y109519D01*
X138114Y119677D01*
X129225Y129225D01*
X119677Y138114D01*
X109519Y146300D01*
X98803Y153740D01*
X87583Y160397D01*
X75918Y166236D01*
X63865Y171229D01*
X51487Y175349D01*
X38847Y178575D01*
X26008Y180891D01*
X13037Y182286D01*
X0Y182751D01*
D02*
G37*
%LPD*%
D11*
X165180Y93892D02*
G03*
X11754Y189636I-165180J-93892D01*
G01*
X-5006Y189934D02*
G03*
X-179103Y63420I5006J-189934D01*
G01*
X175920Y72319D02*
X193690Y43877D01*
X199163Y35116D01*
X211003D01*
Y13844D02*
Y35116D01*
X209541Y15305D02*
X211003Y13844D01*
X228175Y-11331D02*
Y55930D01*
X224412Y-15094D02*
X228175Y-11331D01*
X212815Y-15094D02*
X224412D01*
X211003Y-52576D02*
Y-16906D01*
X212815Y-15094D01*
X175920Y72319D02*
Y82103D01*
X-181301Y61160D02*
X-179072Y63389D01*
X-199130Y61160D02*
X-181301D01*
X185420Y108103D02*
Y131215D01*
X165335Y93980D02*
X182662D01*
X185420Y91222D01*
Y82103D02*
Y91222D01*
X180000Y0D02*
G03*
X180000Y0I-180000J0D01*
G01*
X-115729Y-124526D02*
G03*
X-115733Y-124522I115729J124526D01*
G01*
D45*
X146841Y157043D02*
G03*
X-197321Y85377I-146841J-157043D01*
G01*
X195127Y80553D02*
X196677Y82103D01*
X146841Y139216D02*
Y157043D01*
X202431Y74846D02*
X211003Y66274D01*
Y56706D02*
Y66274D01*
X194920Y108103D02*
X200051D01*
X200663Y107492D02*
X205497D01*
X200051Y108103D02*
X200663Y107492D01*
X2946Y216410D02*
Y216910D01*
X202431Y74846D02*
Y82103D01*
X196677D02*
X202431D01*
X220334Y88591D02*
Y107846D01*
X205497Y107492D02*
X218557D01*
D46*
X-235000Y150000D02*
D03*
Y-150000D02*
D03*
X235000D02*
D03*
X-172500Y-172500D02*
D03*
X172500D02*
D03*
Y172500D02*
D03*
X-172500D02*
D03*
X235000Y150000D02*
D03*
D47*
X228175Y55930D02*
D03*
X25400Y247650D02*
D03*
X-241300Y95103D02*
D03*
X238407Y76200D02*
D03*
X237490Y120650D02*
D03*
X146841Y139216D02*
D03*
X155885Y194310D02*
D03*
X-148590Y-200660D02*
D03*
X-164043Y112303D02*
D03*
X0Y-240030D02*
D03*
Y-196346D02*
D03*
X-68883Y-183158D02*
D03*
X-139216Y-139951D02*
D03*
X-183299Y-74327D02*
D03*
X-79612Y184078D02*
D03*
X-137160Y146050D02*
D03*
X-241300Y-2946D02*
D03*
Y68883D02*
D03*
X-190500Y38100D02*
D03*
X-193040Y-17652D02*
D03*
X95103Y174036D02*
D03*
X-155885Y194310D02*
D03*
X63439Y240037D02*
D03*
X74327Y-180340D02*
D03*
X135331Y-139216D02*
D03*
X202499Y-146391D02*
D03*
X238407Y-44450D02*
D03*
Y5893D02*
D03*
Y44450D02*
D03*
X205497Y107492D02*
D03*
X202431Y82103D02*
D03*
X202499Y146391D02*
D03*
X-17652Y247650D02*
D03*
X96913Y228610D02*
D03*
X38100Y194310D02*
D03*
X-92683Y232410D02*
D03*
X179615Y-84576D02*
D03*
X-197416Y-152938D02*
D03*
X74327Y-232410D02*
D03*
X238407Y-95103D02*
D03*
X-241300Y-81280D02*
D03*
X130810Y-212090D02*
D03*
X-92710Y-232410D02*
D03*
D48*
X211003Y13844D02*
D03*
D49*
Y-16906D02*
D03*
D50*
Y35116D02*
D03*
Y56706D02*
D03*
D51*
X-230130Y34960D02*
D03*
Y112360D02*
D03*
D52*
X-199130Y86160D02*
D03*
Y73660D02*
D03*
Y61160D02*
D03*
D53*
X194920Y108103D02*
D03*
X185420D02*
D03*
X175920D02*
D03*
Y82103D02*
D03*
X185420D02*
D03*
X194920D02*
D03*
D54*
X220083Y88591D02*
D03*
X236085D02*
D03*
X220083Y107846D02*
D03*
X236085D02*
D03*
X10947Y191770D02*
D03*
X-5055D02*
D03*
D55*
X185420Y131215D02*
D03*
Y147217D02*
D03*
D56*
X211003Y-52576D02*
D03*
Y-84576D02*
D03*
X2946Y216410D02*
D03*
Y248410D02*
D03*
M02*
